# xmcd
# 
# Track frame offsets:
#     150
#     7616
#     26397
#     48244
#     55514
#     75907
#     101247
#     117228
#     138194
#     155918
#     170435
# 
# Disc length: 2485
# 
# Revision: 7
# Processed by: cddbd v1.5.2PL0 Copyright (c) Steve Scherf et al.
# Submitted via: fre:ac v1.0.17
# 
DISCID=7609b30b
DTITLE=志方あきこ - 廃墟と楽園
DYEAR=2003
DGENRE=JPop
TTITLE0=Come raggio di sol
TTITLE1=ロマの娘
TTITLE2=MARE (Andante molto espressivo)
TTITLE3=Se l'aura Spira
TTITLE4=ラヂヲ予報
TTITLE5=廃墟と楽園
TTITLE6=何処へ
TTITLE7=Contrasto
TTITLE8=イゥリプカ
TTITLE9=古
TTITLE10=MARE (Allegretto grazioso)
EXTD=
EXTT0=
EXTT1=
EXTT2=
EXTT3=
EXTT4=
EXTT5=
EXTT6=
EXTT7=
EXTT8=
EXTT9=
EXTT10=
PLAYORDER=
